<?xml version="1.0" ?><svg height="64" viewBox="0 0 64 64" width="64" xmlns="http://www.w3.org/2000/svg"><defs><style>.cls-1,.cls-2{fill:#fff;}.cls-2,.cls-3,.cls-4{stroke:#006df0;}.cls-2,.cls-3,.cls-4,.cls-5{stroke-linecap:round;stroke-linejoin:round;stroke-width:2px;}.cls-3{fill:none;}.cls-4{fill:#78b9eb;}.cls-5{fill:#006df0;stroke:#78b9eb;}</style></defs><title/><g data-name="10" id="_10"><rect class="cls-1" height="26" width="46" x="5.5" y="17.5"/><polygon class="cls-2" points="28.5 43.5 20.5 53.5 36.5 53.5 28.5 43.5"/><polyline class="cls-3" points="51.5 28.5 51.5 43.5 5.5 43.5 5.5 17.5 40.5 17.5"/><rect class="cls-4" height="5" width="46" x="5.5" y="43.5"/><line class="cls-2" x1="15.5" x2="41.5" y1="53.5" y2="53.5"/><polygon class="cls-2" points="51.5 10.5 44.5 12.833 51.5 15.167 58.5 12.833 51.5 10.5"/><polygon class="cls-4" points="58.5 22.167 51.5 24.5 44.5 22.167 44.5 12.833 51.5 15.167 58.5 12.833 58.5 22.167"/><line class="cls-4" x1="51.5" x2="51.5" y1="15.167" y2="24.5"/><polygon class="cls-4" points="41.5 13 41.5 13 41.5 13 41.5 13 41.5 13"/><polygon class="cls-4" points="38.5 13 38.5 13 38.5 13 38.5 13 38.5 13"/><polygon class="cls-4" points="35.5 13 35.5 13 35.5 13 35.5 13 35.5 13"/><polygon class="cls-4" points="58.5 31 58.5 31 58.5 31 58.5 31 58.5 31"/><polygon class="cls-4" points="58.5 28 58.5 28 58.5 28 58.5 28 58.5 28"/><polygon class="cls-4" points="58.5 25 58.5 25 58.5 25 58.5 25 58.5 25"/><line class="cls-5" x1="28.5" x2="28.5" y1="21.5" y2="39.5"/><polyline class="cls-3" points="36 28 33.5 30.5 36 33"/><polyline class="cls-3" points="44 28 46.5 30.5 44 33"/><line class="cls-4" x1="41" x2="39" y1="28" y2="33"/><line class="cls-2" x1="9.5" x2="12.5" y1="22.5" y2="22.5"/><line class="cls-2" x1="9.5" x2="18.5" y1="25.5" y2="25.5"/><line class="cls-2" x1="9.5" x2="15.5" y1="30.5" y2="30.5"/><line class="cls-2" x1="9.5" x2="12.5" y1="38.5" y2="38.5"/><line class="cls-2" x1="9.5" x2="12.5" y1="33.5" y2="33.5"/><line class="cls-2" x1="15.5" x2="18.5" y1="33.5" y2="33.5"/></g></svg>